<?xml version="1.0" encoding="UTF-8" standalone="no"?>
<svg
   xmlns:dc="http://purl.org/dc/elements/1.1/"
   xmlns:cc="http://creativecommons.org/ns#"
   xmlns:rdf="http://www.w3.org/1999/02/22-rdf-syntax-ns#"
   xmlns:svg="http://www.w3.org/2000/svg"
   xmlns="http://www.w3.org/2000/svg"
   xmlns:sodipodi="http://sodipodi.sourceforge.net/DTD/sodipodi-0.dtd"
   xmlns:inkscape="http://www.inkscape.org/namespaces/inkscape"
   sodipodi:docname="sai-art.svg"
   inkscape:version="1.0 (1.0+r73+1)"
   id="svg8"
   version="1.1"
   viewBox="0 0 508 285.75"
   height="1080"
   width="1920"
   inkscape:export-filename="/home/sun/Playground/Ink/stream-hud.png"
   inkscape:export-xdpi="96"
   inkscape:export-ydpi="96">
  <defs
     id="defs2" />
  <sodipodi:namedview
     inkscape:window-maximized="1"
     inkscape:window-y="27"
     inkscape:window-x="0"
     inkscape:window-height="1376"
     inkscape:window-width="2560"
     inkscape:snap-bbox-edge-midpoints="false"
     inkscape:bbox-paths="false"
     inkscape:guide-bbox="true"
     showguides="true"
     inkscape:snap-bbox="true"
     inkscape:showpageshadow="false"
     units="px"
     showgrid="false"
     inkscape:document-rotation="0"
     inkscape:current-layer="g863"
     inkscape:document-units="mm"
     inkscape:cy="546.73026"
     inkscape:cx="1563.7254"
     inkscape:zoom="22.4"
     inkscape:pageshadow="2"
     inkscape:pageopacity="0"
     borderopacity="1.0"
     bordercolor="#666666"
     pagecolor="#363636"
     id="base">
    <inkscape:grid
       id="grid12"
       type="xygrid" />
  </sodipodi:namedview>
  <metadata
     id="metadata5">
    <rdf:RDF>
      <cc:Work
         rdf:about="">
        <dc:format>image/svg+xml</dc:format>
        <dc:type
           rdf:resource="http://purl.org/dc/dcmitype/StillImage" />
        <dc:title />
      </cc:Work>
    </rdf:RDF>
  </metadata>
  <g
     id="layer1"
     inkscape:groupmode="layer"
     inkscape:label="Layer 1">
    <g
       transform="matrix(1.4347805,0,0,1.4347805,-119.52456,-58.450281)"
       id="g863">
      <path
         id="path877"
         d="m 120.80434,237.95213 c 3.58735,-3.06824 15.14902,-9.32687 23.32873,-12.62844 12.04093,-4.86007 23.03459,-7.61149 37.92361,-9.49127 7.02369,-0.88676 25.67349,-0.88083 33.16111,0.0105 9.10883,1.08438 15.20411,2.14721 23.28333,4.05992 7.91934,1.87485 11.04689,2.53047 16.05139,3.36483 35.6732,5.94748 64.45287,-1.55735 87.35681,-22.7799 6.77264,-6.27546 11.7038,-11.91855 19.60212,-22.43215 6.81515,-9.07177 7.62965,-9.66176 4.70849,-3.41066 -3.1544,6.75024 -8.2987,15.00363 -13.72476,22.01968 -4.12225,5.3302 -14.65091,15.75455 -19.80239,19.60619 -18.3025,13.68439 -38.18336,20.49791 -64.31939,22.04341 -14.89213,0.88061 -28.63454,-0.75408 -51.03894,-6.0712 -11.58503,-2.74941 -18.25375,-4.07885 -25.68012,-5.11945 -5.95066,-0.83382 -7.89195,-0.94898 -15.94765,-0.946 -8.15342,0.003 -9.87755,0.10926 -15.52222,0.95651 -10.97743,1.64769 -20.71396,4.38607 -32.96161,9.27039 -3.57679,1.42642 -6.75179,2.58703 -7.05555,2.57915 -0.36196,-0.009 -0.14243,-0.36489 0.63704,-1.03156 z m 149.62317,-0.37989 c 8.3864,-0.59099 19.03496,-2.32389 26.10555,-4.24831 24.64185,-6.70679 45.4252,-21.7734 60.30156,-43.71479 4.03306,-5.94843 9.38691,-15.52222 8.68033,-15.52222 -0.0845,0 -2.10561,2.56722 -4.49133,5.70493 -11.04134,14.52164 -20.26724,23.71371 -31.03881,30.92502 -11.13038,7.4515 -23.06731,11.95401 -37.68508,14.21446 -4.34893,0.67251 -6.56868,0.79306 -14.81667,0.80467 -12.96233,0.0182 -21.7506,-1.08624 -36.40481,-4.57518 -10.22245,-2.43382 -15.74839,-3.44183 -25.3313,-4.62081 -7.96232,-0.9796 -27.74443,-0.89019 -35.52416,0.16057 -16.45984,2.22311 -30.27985,6.23625 -43.47777,12.62537 -5.31199,2.57153 -10.5907,5.54035 -12.36751,6.95567 -1.16055,0.92443 -0.75462,0.80816 5.29167,-1.51564 18.82602,-7.23551 35.70202,-10.21749 52.1469,-9.21432 10.38933,0.63377 16.86187,1.7495 37.10587,6.39627 23.37902,5.36638 35.84652,6.72781 51.50556,5.62431 z m -13.05278,-19.28218 c -17.94148,-1.3665 -31.25513,-5.20606 -43.56805,-12.56472 -5.63165,-3.36569 -9.88645,-6.72909 -15.00292,-11.85976 -6.97151,-6.99087 -11.46295,-13.25417 -16.20159,-22.59309 -7.40779,-14.59926 -11.87889,-31.69375 -13.41763,-51.3 -0.44112,-5.62055 -0.46113,-20.669296 -0.0284,-21.353022 0.80736,-1.275644 11.69477,1.556872 17.9706,4.675322 5.18849,2.57814 9.37542,5.65398 13.9867,10.27501 10.4432,10.46529 16.6533,23.88621 19.75893,42.70184 4.66938,28.2897 16.02229,48.37572 32.76877,57.97583 1.73006,0.99177 4.23947,2.22123 5.57647,2.73213 1.337,0.5109 2.38212,0.96986 2.32249,1.01992 -0.27225,0.22856 -2.72913,0.39993 -4.16537,0.29054 z m 1.41111,-0.62183 c 0,-0.0897 -1.21254,-0.74634 -2.69453,-1.45915 -9.14528,-4.3987 -17.77477,-12.92787 -23.77272,-23.49633 -5.64331,-9.94359 -9.28713,-20.96789 -11.98644,-36.26472 -2.12241,-12.0276 -4.45079,-19.35393 -8.85718,-27.86945 -7.8876,-15.24308 -21.34727,-25.8061 -37.11427,-29.126934 -1.32237,-0.278518 -2.9339,-0.506395 -3.58117,-0.506395 h -1.17686 l -0.2439,3.968749 c -0.3342,5.43819 0.36001,18.54307 1.38814,26.20425 6.7998,50.66938 33.50715,81.33009 76.19181,87.47013 3.61369,0.51982 8.23945,1.01941 11.05337,1.19379 0.43656,0.0271 0.79375,-0.0242 0.79375,-0.11394 z m 30.95625,-2.20874 c 0.63059,-0.0782 1.66247,-0.0782 2.29306,0 0.63059,0.0783 0.11465,0.14229 -1.14653,0.14229 -1.26118,0 -1.77712,-0.064 -1.14653,-0.14229 z m 5.29167,-0.33121 c 0.24253,-0.0979 0.63941,-0.0979 0.88194,0 0.24254,0.0979 0.0441,0.17794 -0.44097,0.17794 -0.48507,0 -0.68351,-0.0801 -0.44097,-0.17794 z m 2.84427,-0.36013 c 0.25466,-0.1019 0.55893,-0.0894 0.67616,0.0278 0.11722,0.11722 -0.0911,0.2006 -0.46302,0.18528 -0.41097,-0.0169 -0.49456,-0.10052 -0.21314,-0.21313 z m 1.74184,-0.34543 c 0.24253,-0.0979 0.63941,-0.0979 0.88194,0 0.24254,0.0979 0.0441,0.17794 -0.44097,0.17794 -0.48507,0 -0.68351,-0.0801 -0.44097,-0.17794 z m 2.49149,-0.36012 c 0.25466,-0.10191 0.55894,-0.0894 0.67616,0.0278 0.11722,0.11723 -0.0911,0.2006 -0.46302,0.18529 -0.41097,-0.0169 -0.49456,-0.10052 -0.21314,-0.21314 z m 1.76389,-0.35278 c 0.25466,-0.10191 0.55893,-0.0894 0.67616,0.0278 0.11722,0.11723 -0.0911,0.20061 -0.46302,0.18529 -0.41097,-0.0169 -0.49456,-0.10052 -0.21314,-0.21314 z m 1.76389,-0.35278 c 0.25466,-0.10191 0.55893,-0.0894 0.67616,0.0278 0.11722,0.11722 -0.0911,0.2006 -0.46302,0.18528 -0.41097,-0.0169 -0.49456,-0.10052 -0.21314,-0.21313 z m 1.41111,-0.35278 c 0.25466,-0.1019 0.55893,-0.0894 0.67616,0.0278 0.11722,0.11722 -0.0911,0.2006 -0.46302,0.18528 -0.41097,-0.0169 -0.49456,-0.10052 -0.21314,-0.21313 z m -127.02204,-7.06353 c 0.43656,-0.0841 1.15093,-0.0841 1.5875,0 0.43656,0.0841 0.0794,0.15288 -0.79375,0.15288 -0.87313,0 -1.23032,-0.0688 -0.79375,-0.15288 z m 20.94834,-0.25544 c -0.66858,-0.35782 -0.72624,-0.48826 -0.28984,-0.65572 0.29962,-0.11498 0.73775,0.0235 0.97361,0.30768 0.60037,0.72339 0.30167,0.87543 -0.68377,0.34804 z m 125.8954,0.35284 c 0,-0.097 0.3175,-0.34631 0.70556,-0.55399 0.38805,-0.20768 0.70555,-0.29823 0.70555,-0.20122 0,0.097 -0.3175,0.34632 -0.70555,0.554 -0.38806,0.20768 -0.70556,0.29822 -0.70556,0.20121 z m -143.75694,-0.55399 c 0.96982,-0.41675 1.52681,-0.41675 0.88194,0 -0.29104,0.18809 -0.76729,0.33325 -1.05833,0.32258 -0.34892,-0.0128 -0.28883,-0.12267 0.17639,-0.32258 z m 15.34583,-1.05833 c -0.67909,-0.37179 -1.10777,-0.68264 -0.95262,-0.69077 0.37384,-0.0196 2.36373,1.01502 2.36373,1.22899 0,0.2309 -0.0206,0.22302 -1.41111,-0.53822 z m -12.08852,-0.39656 c 0.23931,-0.24109 0.52396,-0.34949 0.63258,-0.24087 0.10862,0.10862 -0.0872,0.30588 -0.43509,0.43836 -0.50278,0.19144 -0.5433,0.15092 -0.19749,-0.19749 z m 12.42925,-1.63192 -1.92823,-2.02847 2.02848,1.92823 c 1.11566,1.06052 2.02847,1.97333 2.02847,2.02847 0,0.26185 -0.33734,-0.0437 -2.12872,-1.92823 z m -24.37462,0 c -0.4388,-0.55952 -0.42633,-0.572 0.1332,-0.13319 0.33955,0.26629 0.61736,0.5441 0.61736,0.61736 0,0.29035 -0.2897,0.10347 -0.75056,-0.48417 z m 16.53737,0.36216 c 0.63059,-0.0782 1.66246,-0.0782 2.29305,0 0.63059,0.0783 0.11465,0.14229 -1.14653,0.14229 -1.26118,0 -1.77711,-0.064 -1.14652,-0.14229 z m 4.81717,-3.00799 -0.67204,-0.79375 0.79375,0.67204 c 0.74593,0.63155 0.95435,0.91546 0.67204,0.91546 -0.0669,0 -0.42413,-0.35719 -0.79375,-0.79375 z m -22.01509,0.30778 c 0,-0.0733 0.27781,-0.35107 0.61736,-0.61736 0.55953,-0.43881 0.57201,-0.42634 0.1332,0.13319 -0.46086,0.58764 -0.75056,0.77452 -0.75056,0.48417 z m 20.10833,-1.66222 c -0.7598,-0.62148 -0.77473,-0.66899 -0.10784,-0.34304 0.42576,0.2081 0.87169,0.53626 0.99096,0.72924 0.31841,0.5152 0.10457,0.42168 -0.88312,-0.3862 z m -18.34444,0.25111 c 0,-0.0733 0.27781,-0.35107 0.61736,-0.61737 0.55953,-0.4388 0.572,-0.42633 0.13319,0.1332 -0.46085,0.58764 -0.75055,0.77452 -0.75055,0.48417 z m 15.52222,-1.80709 c -0.48507,-0.27729 -0.71385,-0.50979 -0.5084,-0.51666 0.20545,-0.007 0.6817,0.22057 1.05834,0.50544 0.871,0.6588 0.5928,0.66447 -0.54994,0.0112 z m 150.8125,-0.88194 c 0.35118,-0.38806 0.71789,-0.70556 0.81491,-0.70556 0.097,0 -0.11095,0.3175 -0.46214,0.70556 -0.35118,0.38805 -0.71789,0.70555 -0.81491,0.70555 -0.097,0 0.11095,-0.3175 0.46214,-0.70555 z m -154.7592,-0.59377 c 0.25466,-0.1019 0.55893,-0.0894 0.67616,0.0278 0.11722,0.11722 -0.0911,0.2006 -0.46302,0.18528 -0.41097,-0.0169 -0.49456,-0.10052 -0.21314,-0.21313 z m -3.01395,-0.35626 c 0.34324,-0.0894 0.81949,-0.0836 1.05834,0.0131 0.23884,0.0966 -0.042,0.16982 -0.62408,0.16263 -0.58208,-0.007 -0.7775,-0.0863 -0.43426,-0.1757 z m 162.53565,-3.45969 c 1.83559,-1.84327 3.41683,-3.35139 3.51384,-3.35139 0.097,0 -1.32547,1.50812 -3.16107,3.35139 -1.83559,1.84326 -3.41682,3.35139 -3.51384,3.35139 -0.097,0 1.32547,-1.50813 3.16107,-3.35139 z m 4.7625,-5.11528 c 0.35118,-0.38806 0.71789,-0.70556 0.81491,-0.70556 0.097,0 -0.11095,0.3175 -0.46214,0.70556 -0.35118,0.38805 -0.71789,0.70555 -0.81491,0.70555 -0.097,0 0.11095,-0.3175 0.46214,-0.70555 z m 1.23472,-1.54431 c 0,-0.0733 0.27781,-0.35106 0.61736,-0.61736 0.55953,-0.43881 0.572,-0.42633 0.13319,0.1332 -0.46085,0.58764 -0.75055,0.77451 -0.75055,0.48416 z m 1.05833,-1.41111 c 0,-0.0733 0.27781,-0.35107 0.61736,-0.61736 0.55953,-0.43881 0.57201,-0.42633 0.1332,0.1332 -0.46086,0.58763 -0.75056,0.77451 -0.75056,0.48416 z m 18.72508,-40.99481 c 0.0169,-0.41097 0.10052,-0.49456 0.21313,-0.21314 0.10191,0.25466 0.0894,0.55894 -0.0278,0.67616 -0.11723,0.11722 -0.20061,-0.0911 -0.18529,-0.46302 z m 1.05833,-4.23333 c 0.0169,-0.41097 0.10052,-0.49456 0.21313,-0.21314 0.10191,0.25466 0.0894,0.55893 -0.0278,0.67616 -0.11723,0.11722 -0.2006,-0.0911 -0.18529,-0.46302 z m 0.35278,-2.11667 c 0.0169,-0.41097 0.10052,-0.49456 0.21313,-0.21314 0.10191,0.25466 0.0894,0.55894 -0.0278,0.67616 -0.11723,0.11722 -0.20061,-0.0911 -0.18529,-0.46302 z m -150.58968,-0.64058 c 0.25019,-0.27147 0.51047,-0.44078 0.57841,-0.37625 0.20924,0.19878 -0.32108,0.86984 -0.68742,0.86984 -0.19023,0 -0.14117,-0.22212 0.10901,-0.49359 z m -2.04808,-1.3585 -0.67204,-0.79375 0.79375,0.67204 c 0.43657,0.36962 0.79375,0.72681 0.79375,0.79375 0,0.28231 -0.28391,0.0739 -0.91546,-0.67204 z m 152.99053,0.23519 c 0.0169,-0.41097 0.10052,-0.49456 0.21314,-0.21314 0.10191,0.25466 0.0894,0.55894 -0.0278,0.67616 -0.11722,0.11723 -0.2006,-0.0911 -0.18528,-0.46302 z m -150.28333,-1.05833 c 0.0169,-0.41097 0.10053,-0.49456 0.21314,-0.21314 0.10191,0.25466 0.0894,0.55893 -0.0278,0.67616 -0.11722,0.11722 -0.2006,-0.0911 -0.18528,-0.46302 z m 150.63611,-1.05834 c 0.0169,-0.41096 0.10052,-0.49456 0.21314,-0.21313 0.1019,0.25466 0.0894,0.55893 -0.0278,0.67615 -0.11722,0.11723 -0.2006,-0.0911 -0.18528,-0.46302 z m -155.64785,-1.11713 c -0.43881,-0.55952 -0.42633,-0.572 0.1332,-0.13319 0.58764,0.46086 0.77452,0.75055 0.48416,0.75055 -0.0733,0 -0.35106,-0.27781 -0.61736,-0.61736 z m 156.02848,-0.79375 c 0,-0.48507 0.0801,-0.6835 0.17794,-0.44097 0.0979,0.24254 0.0979,0.63941 0,0.88195 -0.0979,0.24253 -0.17794,0.0441 -0.17794,-0.44098 z m -150.31118,-0.20578 c 0.0169,-0.41097 0.10052,-0.49456 0.21313,-0.21314 0.10191,0.25466 0.0894,0.55893 -0.0278,0.67616 -0.11722,0.11722 -0.2006,-0.0911 -0.18529,-0.46302 z m -6.77563,-0.41158 c -0.43881,-0.55952 -0.42633,-0.572 0.1332,-0.13319 0.58763,0.46086 0.77451,0.75055 0.48416,0.75055 -0.0733,0 -0.35107,-0.27781 -0.61736,-0.61736 z m 7.12841,-0.99953 c 0.0169,-0.41097 0.10052,-0.49456 0.21313,-0.21314 0.10191,0.25466 0.0894,0.55893 -0.0278,0.67616 -0.11723,0.11722 -0.20061,-0.0911 -0.18529,-0.46302 z m 150.28333,-1.05834 c 0.0169,-0.41097 0.10052,-0.49456 0.21313,-0.21314 0.10191,0.25466 0.0894,0.55894 -0.0278,0.67616 -0.11723,0.11723 -0.20061,-0.0911 -0.18529,-0.46302 z m 0.38062,-2.96921 c 0,-0.48507 0.0801,-0.68351 0.17794,-0.44097 0.0979,0.24253 0.0979,0.63941 0,0.88194 -0.0979,0.24254 -0.17794,0.0441 -0.17794,-0.44097 z m 0.36586,-2.64583 c 0.007,-0.58209 0.0863,-0.77751 0.17569,-0.43426 0.0894,0.34324 0.0836,0.81949 -0.0131,1.05833 -0.0966,0.23884 -0.16981,-0.042 -0.16262,-0.62407 z m -39.64134,-2.11932 c -0.0985,-0.0985 0.72998,-2.04316 1.841,-4.32153 4.38418,-8.99063 6.68712,-18.012514 6.68712,-26.197138 0,-6.202034 -0.90737,-10.363606 -3.47671,-15.945626 -4.40993,-9.580819 -6.38515,-16.444614 -6.39554,-22.2242 -0.004,-1.881507 0.20963,-3.708228 0.54898,-4.707756 0.30498,-0.898303 0.49053,-1.697259 0.41234,-1.775457 -0.43186,-0.43186 -9.65872,3.389697 -13.60914,5.636599 -8.29084,4.715626 -13.26162,9.56798 -16.48695,16.094177 -0.84593,1.711682 -1.36861,2.428021 -1.55341,2.129002 -0.1684,-0.272471 -0.016,-0.713142 0.3854,-1.114561 0.36516,-0.365154 0.66392,-0.891638 0.66392,-1.169964 0,-0.278327 0.9558,-1.934994 2.12401,-3.681484 3.75289,-5.610631 10.30315,-10.820598 18.50707,-14.720203 4.72777,-2.247277 10.10319,-4.121323 10.54736,-3.677155 0.18324,0.183244 0.0663,0.932435 -0.28105,1.800552 -2.02988,5.073181 -0.37387,13.73601 4.88612,25.559923 3.42472,7.698436 4.19663,10.97403 4.19516,17.802192 -0.002,8.247049 -1.5486,14.891729 -5.62309,24.155249 -1.65285,3.75783 -1.79874,4.26376 -1.10628,3.83656 0.24254,-0.14962 -0.0883,0.39663 -0.7352,1.2139 -1.24946,1.57854 -1.25486,1.58316 -1.53111,1.30692 z m 40.00718,-1.23207 c 0,-0.6791 0.0726,-0.95691 0.16134,-0.61736 0.0887,0.33954 0.0887,0.89517 0,1.23472 -0.0887,0.33955 -0.16134,0.0617 -0.16134,-0.61736 z m -147.88492,-0.52917 c 0,-0.19403 0.15388,-0.5909 0.34197,-0.88194 0.18809,-0.29105 0.34197,-0.37042 0.34197,-0.17639 0,0.19402 -0.15388,0.5909 -0.34197,0.88194 -0.18809,0.29104 -0.34197,0.37042 -0.34197,0.17639 z m 110.40864,-1.36792 c 0,-0.0733 0.27781,-0.35106 0.61736,-0.61736 0.55952,-0.43881 0.572,-0.42633 0.13319,0.1332 -0.46086,0.58764 -0.75055,0.77451 -0.75055,0.48416 z m 1.94027,-2.33625 c 0.35119,-0.38805 0.7179,-0.70555 0.81491,-0.70555 0.097,0 -0.11094,0.3175 -0.46213,0.70555 -0.35119,0.38806 -0.71789,0.70556 -0.81491,0.70556 -0.097,0 0.11095,-0.3175 0.46213,-0.70556 z m 35.91266,-1.41111 c 0,-1.06715 0.0661,-1.50371 0.14696,-0.97014 0.0808,0.53358 0.0808,1.4067 0,1.94028 -0.0808,0.53358 -0.14696,0.097 -0.14696,-0.97014 z m -32.56127,-2.29305 c 1.0539,-1.06716 1.99555,-1.94028 2.09257,-1.94028 0.097,0 -0.68589,0.87312 -1.73979,1.94028 -1.0539,1.06715 -1.99555,1.94027 -2.09257,1.94027 -0.097,0 0.6859,-0.87312 1.73979,-1.94027 z m 3.70417,-3.35139 c 0.35119,-0.38806 0.71789,-0.70556 0.81491,-0.70556 0.097,0 -0.11095,0.3175 -0.46213,0.70556 -0.35119,0.38805 -0.7179,0.70555 -0.81491,0.70555 -0.097,0 0.11094,-0.3175 0.46213,-0.70555 z m 4.05694,-2.95542 c 0,-0.0733 0.27782,-0.35107 0.61736,-0.61736 0.55953,-0.43881 0.57201,-0.42633 0.1332,0.13319 -0.46086,0.58764 -0.75056,0.77452 -0.75056,0.48417 z m -147.43325,-2.18926 c 0.0169,-0.41097 0.10052,-0.49456 0.21313,-0.21313 0.10191,0.25466 0.0894,0.55893 -0.0278,0.67615 -0.11723,0.11723 -0.20061,-0.0911 -0.18529,-0.46302 z m 152.01936,-0.65804 c 0,-0.097 0.47625,-0.42266 1.05834,-0.72367 0.58208,-0.30101 1.05833,-0.46791 1.05833,-0.3709 0,0.097 -0.47625,0.42267 -1.05833,0.72368 -0.58209,0.301 -1.05834,0.46791 -1.05834,0.37089 z M 203.78036,99.445021 c 0.0169,-0.410969 0.10052,-0.494559 0.21314,-0.213138 0.1019,0.25466 0.0894,0.558931 -0.0278,0.676159 -0.11723,0.117228 -0.2006,-0.09114 -0.18528,-0.463021 z m -0.35278,-2.116667 c 0.0169,-0.410968 0.10052,-0.494559 0.21314,-0.213137 0.10191,0.254659 0.0894,0.55893 -0.0278,0.676158 -0.11722,0.117225 -0.2006,-0.09114 -0.18528,-0.463021 z m 173.25481,-0.323381 c 0.007,-0.582083 0.0863,-0.777501 0.1757,-0.434258 0.0894,0.343242 0.0836,0.819492 -0.0131,1.058333 -0.0966,0.238841 -0.16982,-0.04199 -0.16263,-0.624075 z m -4.36825,-1.12293 c 0.25466,-0.101907 0.55893,-0.08938 0.67616,0.02783 0.11722,0.117225 -0.0911,0.200604 -0.46302,0.185286 -0.41097,-0.01693 -0.49456,-0.10052 -0.21314,-0.213134 z m 2.6305,-0.356263 c 0.34324,-0.08944 0.81949,-0.08356 1.05833,0.01309 0.23884,0.09664 -0.042,0.169817 -0.62408,0.162627 -0.58208,-0.0072 -0.7775,-0.08625 -0.43425,-0.175698 z M 203.10265,94.711918 c 0,-0.485069 0.0801,-0.683507 0.17794,-0.440972 0.0979,0.242534 0.0979,0.639409 0,0.881944 -0.0979,0.242535 -0.17794,0.0441 -0.17794,-0.440972 z m -0.27963,-5.115278 c 10e-4,-1.940277 0.0602,-2.68902 0.13165,-1.663869 0.0715,1.025151 0.0707,2.612651 -0.002,3.527778 -0.0724,0.915126 -0.13089,0.07637 -0.12997,-1.863909 z m 38.17022,1.131313 c 0.13248,-0.347917 0.32974,-0.543708 0.43836,-0.435092 0.10862,0.108617 2.3e-4,0.393273 -0.24087,0.632577 -0.34841,0.345814 -0.38893,0.305294 -0.19749,-0.197485 z m -37.91843,-6.452376 c 0.0169,-0.410969 0.10052,-0.494559 0.21313,-0.213138 0.10191,0.25466 0.0894,0.55893 -0.0278,0.676159 -0.11723,0.117224 -0.20061,-0.09114 -0.18529,-0.463021 z m 0.35277,-2.469445 c 0.0169,-0.410968 0.10052,-0.494559 0.21314,-0.213137 0.10191,0.254659 0.0894,0.55893 -0.0278,0.676158 -0.11722,0.117225 -0.2006,-0.09114 -0.18528,-0.463021 z m 40.95007,-1.205325 c 0,-0.485069 0.0801,-0.683507 0.17794,-0.440972 0.0979,0.242535 0.0979,0.63941 0,0.881944 -0.0979,0.242535 -0.17794,0.0441 -0.17794,-0.440972 z m 0.41284,-4.056944 c 0.001,-1.358195 0.0653,-1.87059 0.1417,-1.138661 0.0764,0.731933 0.0751,1.843183 -0.003,2.469444 -0.0779,0.626266 -0.14042,0.02741 -0.13885,-1.330783 z M 205.5414,75.132752 c 0,-0.194028 0.22688,-0.749653 0.50417,-1.234723 0.27729,-0.485069 0.50416,-0.723194 0.50416,-0.529166 0,0.194028 -0.22687,0.749653 -0.50416,1.234722 -0.27729,0.485069 -0.50417,0.723194 -0.50417,0.529167 z m 38.80841,-2.851621 c 0.0169,-0.410966 0.10052,-0.494559 0.21313,-0.213136 0.10191,0.254661 0.0894,0.558932 -0.0278,0.676157 -0.11723,0.117225 -0.20061,-0.09113 -0.18529,-0.463021 z m -1.92455,-5.981462 c -0.34043,-0.887128 -0.24,-1.116032 0.17587,-0.400874 0.20591,0.354101 0.30007,0.718135 0.20924,0.808964 -0.0908,0.09083 -0.26413,-0.09281 -0.38511,-0.40809 z m -2.02886,-3.602334 c -0.43881,-0.559525 -0.42633,-0.572003 0.13319,-0.133193 0.33955,0.266292 0.61736,0.544105 0.61736,0.617361 0,0.290348 -0.28969,0.103471 -0.75055,-0.484168 z m -2.62303,-3.351389 -1.03614,-1.146527 1.14653,1.03614 c 0.63059,0.569877 1.14653,1.085815 1.14653,1.146528 0,0.272542 -0.29109,0.03258 -1.25692,-1.036141 z m -25.87912,-1.175925 c 0.0169,-0.410966 0.10052,-0.49456 0.21313,-0.213137 0.10191,0.254661 0.0894,0.558932 -0.0278,0.676157 -0.11722,0.117225 -0.2006,-0.09113 -0.18529,-0.46302 z m 22.876,-1.822686 -0.85524,-0.970139 0.97014,0.855244 c 0.53357,0.470385 0.97014,0.906947 0.97014,0.970139 0,0.276675 -0.28568,0.0515 -1.08504,-0.855244 z m -22.52322,0.0588 c 0.0169,-0.410966 0.10052,-0.494559 0.21313,-0.213137 0.10191,0.254661 0.0894,0.558932 -0.0278,0.676158 -0.11723,0.117224 -0.20061,-0.09113 -0.18529,-0.463021 z m 0.3937,-2.087269 c 0.007,-0.582083 0.0863,-0.7775 0.1757,-0.434258 0.0894,0.343241 0.0836,0.819491 -0.0131,1.058333 -0.0966,0.238842 -0.1698,-0.04199 -0.16261,-0.624075 z m 19.99456,0.264583 c -0.43881,-0.559525 -0.42634,-0.572003 0.13319,-0.133193 0.58764,0.460858 0.77452,0.750555 0.48417,0.750555 -0.0733,0 -0.35107,-0.277813 -0.61736,-0.617362 z m -20.00764,-6.438194 c 0,-0.485069 0.0801,-0.683507 0.17794,-0.440972 0.0979,0.242535 0.0979,0.63941 0,0.881944 -0.0979,0.242535 -0.17794,0.0441 -0.17794,-0.440972 z m -1.08618,-3.380787 c 0.0169,-0.410966 0.10052,-0.494559 0.21314,-0.213136 0.1019,0.254661 0.0894,0.558932 -0.0278,0.676157 -0.11722,0.117225 -0.2006,-0.09113 -0.18528,-0.463021 z"
         style="fill:#f1a897;stroke-width:0.352778" />
      <path
         sodipodi:nodetypes="sssscssssssssssssssscssssssscsssssssssscsssssssssscssccsssssssssssssssssssscsssssssscssscssssssssssscscccsssss"
         id="path875"
         d="m 254.17067,217.46307 c -13.88767,-1.23808 -25.70229,-4.52235 -36.30705,-10.09276 -25.87448,-13.5912 -42.04287,-40.44388 -47.11671,-78.25206 -1.02813,-7.66118 -1.72234,-20.76606 -1.38814,-26.20425 l 0.2439,-3.968749 h 1.17686 c 3.43221,0 10.64075,2.208279 16.21604,4.967659 13.90265,6.88086 24.07231,19.66035 29.77255,37.41306 1.54442,4.80989 2.34,8.18554 3.56403,15.12206 2.69931,15.29683 6.34313,26.32113 11.98644,36.26472 5.99795,10.56846 14.62744,19.09763 23.77272,23.49633 1.48199,0.71281 2.69453,1.36943 2.69453,1.45915 0,0.18656 -0.44112,0.16695 -4.61517,-0.20516 z m 36.36517,-2.49361 c 0.48507,-0.22456 1.78937,-0.3829 2.89844,-0.35187 4.64139,0.12989 17.42402,-2.67769 24.84399,-5.45673 14.98464,-5.61227 27.42096,-15.19027 37.0669,-28.54755 8.60559,-11.91665 14.89647,-27.78289 18.23506,-45.47982 1.44532,-7.66122 2.33734,-15.66553 2.62433,-23.84102 0.13963,-3.97757 0.19492,-9.03436 0.12289,-11.23732 l -0.13098,-4.005375 -1.99629,0.244083 c -5.99278,0.73273 -13.08339,3.240726 -18.92296,6.693182 -5.96185,3.52474 -12.57751,9.61513 -16.39839,15.09641 -1.64022,2.35298 -2.48188,3.22224 -2.48188,2.56326 0,-0.56682 5.24879,-6.88353 8.0942,-9.74106 4.64802,-4.66782 8.3226,-7.305 14.49449,-10.40246 4.79337,-2.405625 12.74652,-4.732939 16.17391,-4.732939 h 1.39791 l 0.25668,2.38125 c 0.39841,3.696169 -0.1176,17.586249 -0.90756,24.429859 -4.93179,42.7252 -22.79273,71.55621 -52.69936,85.06695 -8.51553,3.84701 -21.8014,7.17803 -30.20193,7.57219 -2.72474,0.12786 -3.18648,0.0809 -2.46945,-0.25104 z m -112.81996,-9.86485 c -1.64172,-0.83418 -4.04096,-3.64745 -3.86957,-4.53736 0.18053,-0.93747 4.31421,-3.77295 6.65061,-4.56196 5.59879,-1.89074 11.42288,0.0798 17.73573,6.0009 2.93839,2.75604 3.374,3.83111 1.018,2.5124 -1.69231,-0.94722 -5.22042,-1.85723 -7.19073,-1.85471 -1.99029,0.002 -3.81945,0.51799 -6.63395,1.86938 -3.00805,1.44432 -5.61223,1.6373 -7.71009,0.57135 z m 146.33385,-7.162 c 0,-0.0733 0.27781,-0.35107 0.61736,-0.61736 0.55953,-0.43881 0.572,-0.42633 0.1332,0.13319 -0.46086,0.58764 -0.75056,0.77452 -0.75056,0.48417 z m 4.23333,-4.23333 c 0,-0.0733 0.27781,-0.35107 0.61736,-0.61736 0.55953,-0.43881 0.57201,-0.42634 0.1332,0.13319 -0.46086,0.58764 -0.75056,0.77452 -0.75056,0.48417 z m 14.13896,-46.28648 c 0.0169,-0.41097 0.10053,-0.49456 0.21314,-0.21314 0.10191,0.25466 0.0894,0.55893 -0.0278,0.67616 -0.11722,0.11722 -0.2006,-0.0911 -0.18528,-0.46302 z M 219.72573,131.84178 c -12.81876,-17.05863 -18.66501,-34.843347 -16.16211,-49.16629 0.6199,-3.547417 1.2317,-5.324592 4.0293,-11.704472 2.31018,-5.268329 4.00906,-10.233733 4.81936,-14.085788 0.71013,-3.375816 0.67065,-8.484715 -0.0818,-10.584049 -0.32874,-0.917226 -0.51113,-1.754266 -0.40531,-1.860089 0.29654,-0.296542 6.06315,1.825035 10.01276,3.683764 10.41322,4.900583 18.19388,12.071993 21.07327,19.423174 1.37158,3.501689 1.7894,6.268714 1.56101,10.337983 -0.28128,5.011635 -1.46414,8.67901 -5.21797,16.17788 -7.75177,15.485417 -13.23884,29.145427 -14.92697,37.160527 -0.32692,1.55222 -0.67051,3.17941 -0.76354,3.61597 -0.093,0.43656 -0.37593,0.79375 -0.62868,0.79375 -0.25276,0 -1.74196,-1.70656 -3.30934,-3.79236 z m 4.1332,-0.35278 c 2.08464,-9.06922 7.41576,-22.39303 14.98517,-37.451702 4.38201,-8.717619 5.74934,-13.584213 5.35772,-19.069036 -0.6486,-9.083775 -6.07143,-16.719013 -16.46547,-23.183055 -3.92813,-2.442901 -10.49526,-5.473408 -13.87781,-6.404139 -1.30575,-0.359285 -1.3505,-0.343487 -1.13706,0.401339 1.8161,6.337359 0.45899,13.602848 -4.76707,25.521299 -2.89915,6.61175 -3.34784,7.963936 -3.99654,12.044242 -0.68881,4.332562 -0.69757,7.646419 -0.0326,12.324048 1.74043,12.242604 7.01374,23.794694 16.75236,36.698954 1.06161,1.4067 2.03381,2.55763 2.16043,2.55763 0.12663,0 0.58601,-1.54781 1.02085,-3.43958 z M 344.56654,94.006362 c 0,-0.485069 0.0801,-0.683507 0.17794,-0.440972 0.0979,0.242535 0.0979,0.63941 0,0.881945 -0.0979,0.242534 -0.17794,0.0441 -0.17794,-0.440973 z m 0,-9.172222 c 0,-0.485069 0.0801,-0.683507 0.17794,-0.440972 0.0979,0.242535 0.0979,0.63941 0,0.881945 -0.0979,0.242534 -0.17794,0.0441 -0.17794,-0.440973 z M 311.52612,58.375807 c 1.15202,-1.164166 2.17395,-2.116666 2.27097,-2.116666 0.097,0 -0.76617,0.9525 -1.91819,2.116666 -1.15202,1.164167 -2.17396,2.116667 -2.27097,2.116667 -0.097,0 0.76617,-0.9525 1.91819,-2.116667 z m 3.35139,-2.955415 c 0,-0.07326 0.27781,-0.351069 0.61736,-0.617361 0.55952,-0.43881 0.572,-0.426332 0.13319,0.133193 -0.46086,0.587639 -0.75055,0.774516 -0.75055,0.484168 z m 19.87131,-4.276529 c 10e-4,-1.358194 0.0653,-1.870591 0.1417,-1.138659 0.0764,0.731932 0.0751,1.843182 -0.003,2.469444 -0.078,0.626263 -0.14044,0.02741 -0.13888,-1.330785 z m 0.815,-5.997222 c -0.11168,-0.291042 -0.0493,-0.529167 0.13865,-0.529167 0.18793,0 0.3417,0.238125 0.3417,0.529167 0,0.291042 -0.0624,0.529167 -0.13864,0.529167 -0.0763,0 -0.23002,-0.238125 -0.34171,-0.529167 z"
         style="fill:#efb37d;stroke-width:0.352778" />
      <path
         id="path873"
         d="m 292.6819,214.52386 c 0.0808,-0.0729 2.13137,-0.80338 4.55672,-1.62333 8.62412,-2.91563 17.01783,-7.21651 23.28333,-11.93024 3.60416,-2.71152 9.62315,-8.83089 12.06464,-12.26585 5.24143,-7.37421 8.66907,-16.43023 9.80539,-25.90641 0.50153,-4.18241 0.50803,-13.20586 0.0127,-17.63889 -0.72841,-6.5192 -3.38516,-18.09307 -5.19999,-22.65329 l -0.52144,-1.31025 2.05418,-2.92309 c 5.10462,-7.26386 13.53458,-14.32067 21.27761,-17.8117 4.41338,-1.98983 10.14181,-3.67258 14.18513,-4.166952 l 1.99629,-0.244083 0.13097,4.005375 c 0.072,2.20296 0.0168,7.25975 -0.12289,11.23732 -0.84742,24.14078 -6.9303,46.77325 -17.08116,63.5536 -3.85739,6.37664 -7.13344,10.5635 -12.60942,16.11513 -11.95729,12.12248 -27.06313,19.65011 -45.79557,22.82113 -4.54019,0.76856 -8.46859,1.13103 -8.0365,0.74153 z m -72.00426,-82.15291 c -9.73862,-12.90426 -15.01192,-24.45635 -16.75236,-36.698954 -0.66498,-4.677629 -0.65622,-7.991486 0.0326,-12.324048 0.6487,-4.080306 1.09739,-5.432492 3.99654,-12.044242 5.22606,-11.918451 6.58317,-19.18394 4.76707,-25.521299 -0.21344,-0.744826 -0.16869,-0.760624 1.13706,-0.401339 3.38255,0.930731 9.94967,3.961238 13.8778,6.404139 10.39405,6.464042 15.81688,14.09928 16.46548,23.183055 0.39162,5.484823 -0.97572,10.351417 -5.35773,19.069036 -7.5694,15.058672 -12.90052,28.382482 -14.98516,37.451702 -0.43484,1.89177 -0.89423,3.43958 -1.02085,3.43958 -0.12663,0 -1.09882,-1.15093 -2.16044,-2.55763 z"
         style="fill:#f5b031;stroke-width:0.352778" />
      <path
         id="path871"
         d="m 277.13029,217.66173 c 0,-0.0933 0.75406,-0.56215 1.67569,-1.0419 l 1.67569,-0.87229 -2.91041,-0.0164 c -2.27951,-0.0129 -2.91042,-0.12567 -2.91042,-0.52039 0,-0.70395 0.98386,-1.6127 1.746,-1.6127 0.35051,0 1.20719,-0.23812 1.90376,-0.52916 0.69656,-0.29105 2.13436,-0.52917 3.19511,-0.52917 2.26132,0 3.73846,-0.47732 3.73846,-1.20804 0,-0.28597 -0.59531,-0.95553 -1.32291,-1.48791 -1.85443,-1.35686 -2.20486,-1.86154 -2.20486,-3.17536 0,-0.96633 0.25387,-1.32502 1.58704,-2.24227 1.62375,-1.11716 2.64629,-2.59886 2.64629,-3.83457 0,-0.41233 0.4991,-1.00277 1.22894,-1.45383 1.80616,-1.11627 2.65162,-2.36171 2.65162,-3.9061 0,-1.40781 -0.47033,-1.9505 -2.80214,-3.23323 -1.69076,-0.93009 -2.26887,-2.68499 -2.00732,-6.09341 0.27426,-3.57405 1.41104,-7.72957 2.57941,-9.42906 0.69405,-1.00956 0.8444,-1.54239 0.64703,-2.29305 -0.29632,-1.12698 -0.29154,-2.33941 0.0195,-4.95159 0.18955,-1.59179 0.084,-2.11935 -0.73906,-3.6934 l -0.96021,-1.83636 0.24056,-6.36077 c 0.14269,-3.77313 0.097,-7.34773 -0.11225,-8.78683 -0.33971,-2.336 -0.30878,-2.53245 0.83322,-5.29167 1.9096,-4.61387 2.40722,-7.8447 2.22727,-14.46083 -0.17547,-6.45137 -0.48831,-7.58566 -2.56399,-9.29662 -0.72297,-0.59593 -2.96519,-1.98729 -4.98272,-3.09191 -4.03228,-2.20772 -4.81729,-3.25617 -2.13706,-2.85424 1.48954,0.22336 1.57931,0.18018 3.30227,-1.58853 1.76072,-1.80748 1.77238,-1.83464 1.98819,-4.63311 0.16342,-2.11921 0.0899,-3.06083 -0.29733,-3.8097 -0.28292,-0.5471 -0.48191,-1.74102 -0.44222,-2.65316 0.0635,-1.458347 -0.0543,-1.759658 -0.97647,-2.497465 -0.57676,-0.461468 -1.21739,-0.839823 -1.42363,-0.840786 -0.20623,-0.0011 -0.82019,-0.466467 -1.36436,-1.034453 -1.51971,-1.586237 -2.54187,-1.855153 -6.41829,-1.688561 -6.09025,0.261737 -7.71097,1.05434 -10.09862,4.938695 -0.83176,1.35313 -0.97014,1.95559 -0.97014,4.22345 0,1.6 0.21775,3.16633 0.5511,3.96416 0.30311,0.72544 0.47139,1.52674 0.37395,1.78066 -0.28245,0.73606 0.42562,2.8197 1.19475,3.51574 0.3876,0.35078 1.28295,0.73176 1.98967,0.84664 0.70672,0.11487 1.26637,0.36761 1.24366,0.56164 -0.0227,0.19403 -1.29469,1.06715 -2.82663,1.94028 -6.73307,3.83748 -7.30743,5.04849 -7.71111,16.25846 -0.19126,5.31122 -0.14177,6.07851 0.536,8.30993 0.41069,1.35212 1.46678,3.55472 2.34686,4.89467 1.412,2.14981 1.56998,2.58303 1.34356,3.68452 -0.14113,0.68653 -0.25185,5.45512 -0.24605,10.59686 0.008,7.34003 0.14462,10.10657 0.63457,12.87639 0.34321,1.94028 0.76079,5.9884 0.92795,8.99583 0.16992,3.05706 0.55429,6.32357 0.87174,7.40833 1.07049,3.65796 1.05566,4.91409 -0.10678,9.04836 -1.76991,6.29476 -1.85371,6.72302 -1.6117,8.23647 0.12786,0.79957 0.49726,1.78077 0.8209,2.18044 l 0.58843,0.72668 2.00749,-1.13296 c 2.23268,-1.26005 2.20041,-1.28053 2.48698,1.57851 0.0972,0.97014 0.28037,2.09779 0.40695,2.50588 0.15758,0.50803 -0.0288,1.04205 -0.59121,1.69365 l -0.82136,0.95167 -2.64468,-1.09218 c -17.67866,-7.30076 -30.8369,-23.06955 -34.88516,-41.80622 -2.26626,-10.489 -2.14758,-23.99766 0.31612,-35.98334 4.08329,-19.86481 14.65867,-42.82968 30.90226,-67.105516 5.98266,-8.941004 11.81407,-16.674809 12.57489,-16.677231 0.62137,-0.002 3.8985,4.182509 9.59864,12.256281 1.54077,2.182385 2.91107,3.84926 3.0451,3.704166 0.13403,-0.145093 0.50451,-1.454431 0.82328,-2.909639 1.44037,-6.575299 4.32236,-13.069084 7.96532,-17.947661 2.86765,-3.840291 7.4056,-8.063711 7.4056,-6.892299 0,0.113994 -0.54749,1.186266 -1.21664,2.382825 -1.61537,2.888541 -2.31113,5.725059 -2.31113,9.422044 0,4.127527 0.96643,7.672789 3.54702,13.011866 1.35671,2.806939 1.86497,4.155543 1.41146,3.745128 -0.96545,-0.873722 -3.65792,-6.483883 -4.66448,-9.719125 -1.14782,-3.689307 -1.18188,-10.91079 -0.0641,-13.581945 0.40598,-0.970139 0.86038,-2.081389 1.00976,-2.469444 0.47045,-1.222025 -3.66137,3.062512 -5.44325,5.644444 -3.17447,4.599802 -5.67545,10.486831 -6.89401,16.227778 -0.32948,1.552222 -0.80616,3.377847 -1.05931,4.056944 -0.70956,1.903459 -0.99106,9.151193 -0.55861,14.382351 1.17778,14.247188 4.86134,23.396583 16.79223,41.709313 3.05699,4.69218 6.1176,10.67523 7.38947,14.44533 1.78754,5.2987 2.43607,9.83218 2.42499,16.95189 -0.0361,23.20842 -7.46769,40.91721 -22.10103,52.66472 -4.5136,3.62347 -5.12828,4.05646 -7.43631,5.23835 -1.13529,0.58136 -1.98635,1.13484 -1.89123,1.22995 0.16689,0.1669 4.31937,-0.68894 9.07068,-1.8695 7.67307,-1.90653 19.72746,-7.18589 25.97913,-11.37786 8.95476,-6.0045 15.21191,-12.96579 19.52332,-21.72038 3.01879,-6.12983 4.76951,-11.90009 5.61931,-18.52083 0.22757,-1.77298 0.30384,-1.97301 0.33626,-0.88195 0.0505,1.69859 -1.42617,8.9823 -2.46744,12.17084 -1.04527,3.2008 -4.14891,9.67877 -6.02164,12.56848 -6.72197,10.37229 -18.03872,19.00482 -32.20922,24.5695 -8.32668,3.26984 -24.51805,7.52064 -24.51805,6.43683 z m 65.40964,-63.50676 c 3.6e-4,-3.4925 0.0532,-4.87353 0.11732,-3.06896 0.0642,1.80457 0.0639,4.66207 -7e-4,6.35 -0.0645,1.68793 -0.11702,0.21146 -0.11665,-3.28104 z m -0.63043,-9.32433 c -0.45914,-5.50542 -3.41437,-17.98448 -5.53021,-23.35241 -0.39327,-0.99773 -0.65454,-1.99113 -0.58059,-2.20755 0.15298,-0.44776 2.63391,7.00159 3.74609,11.24818 1.68167,6.42102 3.4149,17.10972 2.77444,17.10972 -0.097,0 -0.28139,-1.25907 -0.40973,-2.79794 z"
         style="fill:#4dbda9;stroke-width:0.352778" />
      <path
         id="path869"
         d="m 251.66098,237.55813 c -8.49418,-0.57529 -17.60803,-2.13705 -32.73903,-5.6102 -20.244,-4.64677 -26.71654,-5.7625 -37.10587,-6.39627 -16.44488,-1.00317 -33.32088,1.97881 -52.1469,9.21432 -6.04629,2.3238 -6.45222,2.44007 -5.29167,1.51564 1.77681,-1.41532 7.05552,-4.38414 12.36751,-6.95567 13.19792,-6.38912 27.01793,-10.40226 43.47777,-12.62537 7.77973,-1.05076 27.56184,-1.14017 35.52416,-0.16057 9.58291,1.17898 15.10885,2.18699 25.3313,4.62081 14.65421,3.48894 23.44248,4.59341 36.40481,4.57518 8.24799,-0.0116 10.46774,-0.13216 14.81667,-0.80467 14.61777,-2.26045 26.5547,-6.76296 37.68508,-14.21446 10.77157,-7.21131 19.99747,-16.40338 31.03881,-30.92502 2.38572,-3.13771 4.40681,-5.70493 4.49133,-5.70493 0.31862,0 -1.62491,3.97984 -3.73727,7.65293 -12.51088,21.75469 -30.86115,38.31632 -52.19184,47.1046 -16.94421,6.98105 -37.60888,10.08965 -57.92486,8.71368 z m 83.3378,-120.70941 C 330.52751,105.34242 323.8795,93.727146 317.68476,86.598029 311.72053,79.73418 304.63159,70.374672 304.65235,69.391378 c 0.003,-0.140717 0.17212,-0.493973 0.37589,-0.785015 0.29772,-0.425235 0.33091,-0.386748 0.169,0.195958 -0.33612,1.209602 3.85119,7.099165 11.16834,15.708576 4.82938,5.682283 6.6759,8.2059 9.88762,13.513322 2.35355,3.889281 6.60767,12.503211 8.37695,16.962001 1.40373,3.53757 1.36795,3.48586 2.03235,2.93797 0.49322,-0.40673 0.50809,-0.36909 0.13257,0.33564 -0.23262,0.43657 -0.53917,0.79375 -0.68122,0.79375 -0.14205,0 -0.64384,-0.99218 -1.11507,-2.20486 z m 8.48158,-17.403699 c 0.0169,-0.410969 0.10052,-0.494559 0.21313,-0.213138 0.10191,0.25466 0.0894,0.558931 -0.0278,0.676159 -0.11723,0.117228 -0.20061,-0.09114 -0.18529,-0.463021 z m 0.35278,-2.116667 c 0.0169,-0.410968 0.10052,-0.494559 0.21313,-0.213137 0.10191,0.254659 0.0894,0.55893 -0.0278,0.676158 -0.11723,0.117225 -0.20061,-0.09114 -0.18529,-0.463021 z m 0.35277,-1.763889 c 0.0169,-0.410968 0.10052,-0.494559 0.21314,-0.213137 0.1019,0.254659 0.0894,0.55893 -0.0278,0.676158 -0.11722,0.117225 -0.2006,-0.09114 -0.18528,-0.463021 z m 0.45834,-6.144214 c 0,-2.231319 0.0573,-3.144132 0.12729,-2.028472 0.07,1.11566 0.07,2.941285 0,4.056945 -0.07,1.115659 -0.12729,0.202847 -0.12729,-2.028473 z m -0.45834,-5.85023 c 0.0169,-0.410968 0.10052,-0.494559 0.21314,-0.213138 0.1019,0.25466 0.0894,0.558934 -0.0278,0.676159 -0.11722,0.117225 -0.2006,-0.09114 -0.18528,-0.463021 z m -0.35277,-1.763889 c 0.0169,-0.410968 0.10052,-0.494559 0.21313,-0.213137 0.10191,0.254659 0.0894,0.55893 -0.0278,0.676158 -0.11723,0.117225 -0.20061,-0.09114 -0.18529,-0.463021 z M 305.71609,67.018863 c 0,-0.194028 0.15389,-0.590903 0.34197,-0.881945 0.18809,-0.291041 0.34198,-0.370416 0.34198,-0.176388 0,0.194027 -0.15389,0.590902 -0.34198,0.881944 -0.18808,0.291042 -0.34197,0.370417 -0.34197,0.176389 z m 32.31194,-0.366416 c -0.34042,-0.887128 -0.24,-1.116032 0.17587,-0.400875 0.20592,0.354101 0.30008,0.718136 0.20925,0.808965 -0.0908,0.09083 -0.26414,-0.09281 -0.38512,-0.40809 z m -28.08941,-6.336362 c 0.4557,-0.485069 0.90792,-0.881944 1.00493,-0.881944 0.097,0 -0.19645,0.396875 -0.65215,0.881944 -0.4557,0.48507 -0.90792,0.881945 -1.00494,0.881945 -0.097,0 0.19646,-0.396875 0.65216,-0.881945 z m 25.42785,-2.498842 c 0.0169,-0.410966 0.10052,-0.494559 0.21313,-0.213137 0.10191,0.254662 0.0894,0.558932 -0.0278,0.676158 -0.11722,0.117224 -0.2006,-0.09114 -0.18529,-0.463021 z m -21.5473,-1.381713 c 0.4557,-0.48507 0.90792,-0.881945 1.00494,-0.881945 0.097,0 -0.19646,0.396875 -0.65216,0.881945 -0.4557,0.485069 -0.90792,0.881944 -1.00493,0.881944 -0.097,0 0.19645,-0.396875 0.65215,-0.881944 z m 21.19452,-0.382176 c 0.0169,-0.410966 0.10052,-0.494559 0.21314,-0.213137 0.1019,0.254662 0.0894,0.558933 -0.0278,0.676158 -0.11722,0.117225 -0.2006,-0.09113 -0.18528,-0.463021 z m -19.43063,-0.98574 c 0,-0.07326 0.27782,-0.351068 0.61736,-0.617361 0.55953,-0.43881 0.57201,-0.426332 0.1332,0.133193 -0.46086,0.587639 -0.75056,0.774517 -0.75056,0.484168 z m 19.07785,-1.130927 c 0.0169,-0.410966 0.10052,-0.494559 0.21314,-0.213136 0.10191,0.254661 0.0894,0.558932 -0.0278,0.676157 -0.11722,0.117225 -0.2006,-0.09113 -0.18528,-0.463021 z M 322.9914,50.123273 c 0,-0.07625 0.24637,-0.233187 0.54749,-0.348737 0.31394,-0.120472 0.45554,-0.06133 0.33195,0.138646 -0.20717,0.33521 -0.87944,0.49581 -0.87944,0.210091 z m 3.88055,-1.978021 c 0.29104,-0.188086 0.68792,-0.341974 0.88195,-0.341974 0.19402,0 0.11465,0.153888 -0.17639,0.341974 -0.29104,0.188086 -0.68792,0.341974 -0.88195,0.341974 -0.19403,0 -0.11465,-0.153888 0.17639,-0.341974 z M 335.06012,45.486 c -0.37582,-0.426119 -0.3605,-0.515748 0.0882,-0.515748 0.29869,0 0.54308,0.238125 0.54308,0.529167 0,0.643349 -0.053,0.642222 -0.63128,-0.01342 z"
         style="fill:#e44d66;stroke-width:0.352778;stroke:none" />
      <path
         id="path867"
         d="m 335.95124,118.13029 c -0.11294,-0.18275 -0.70743,-1.59758 -1.32109,-3.14407 -1.78669,-4.50268 -6.03217,-13.0872 -8.44104,-17.068095 -3.07665,-5.084488 -5.17011,-7.959972 -9.52559,-13.083985 -5.87035,-6.906168 -8.75781,-10.661636 -10.90349,-14.181212 l -0.79548,-1.304823 0.78567,-1.870177 c 3.05421,-7.270058 10.25775,-13.87172 20.41618,-18.710318 3.88486,-1.850415 8.74322,-3.638394 9.05074,-3.330869 0.11663,0.116622 0.0329,0.923419 -0.18602,1.792881 -1.24886,4.959672 0.43197,13.534369 4.4097,22.495974 4.30761,9.704818 5.05107,12.605928 5.06239,19.754356 0.0121,7.654932 -1.72692,15.134328 -5.54699,23.857048 -1.64974,3.767 -2.65159,5.36507 -3.00498,4.79329 z"
         style="fill:#ea553a;stroke-width:0.352778" />
      <path
         id="path865"
         d="m 281.7164,216.24894 c 0,-0.0942 0.91281,-0.63886 2.02847,-1.21031 2.27127,-1.16335 2.89551,-1.60369 7.40061,-5.22033 14.63334,-11.74751 22.06493,-29.4563 22.10103,-52.66472 0.0111,-7.11971 -0.63745,-11.65319 -2.42499,-16.95189 -1.27187,-3.7701 -4.33248,-9.75315 -7.38947,-14.44533 -8.28968,-12.72383 -12.3761,-20.71484 -14.46611,-28.288464 -1.1142,-4.037577 -1.94822,-8.849586 -2.32612,-13.420849 -0.43245,-5.231158 -0.15095,-12.478892 0.55861,-14.382351 0.25315,-0.679097 0.72983,-2.504722 1.05931,-4.056944 1.21856,-5.740947 3.71954,-11.627976 6.89401,-16.227778 1.78188,-2.581932 5.9137,-6.866469 5.44325,-5.644444 -0.14938,0.388055 -0.60378,1.499305 -1.00976,2.469444 -1.12095,2.678619 -1.08413,9.898062 0.0693,13.581945 1.01202,3.232324 3.26853,8.04028 4.41254,9.401815 0.4645,0.552821 1.59915,2.116379 2.52145,3.474573 2.2711,3.344457 5.90698,7.964174 10.27302,13.052778 5.61552,6.544864 8.99522,11.773997 13.51324,20.907865 5.91303,11.95411 10.43159,27.19335 11.6825,39.40027 0.65448,6.38671 0.26328,16.23725 -0.84826,21.35992 -1.32997,6.12922 -2.16172,8.53402 -4.8196,13.93472 -5.6842,11.55005 -14.53532,19.85819 -28.39106,26.64938 -5.33897,2.61682 -15.34948,6.29997 -18.69722,6.87924 -0.77611,0.1343 -2.68111,0.54199 -4.23333,0.906 -3.03547,0.71183 -3.35139,0.75854 -3.35139,0.49546 z"
         style="fill:#058486;stroke-width:0.352778" />
    </g>
  </g>
</svg>
